<?xml version="1.0" encoding="UTF-8"?>
<!DOCTYPE svg PUBLIC "-//W3C//DTD SVG 1.1//EN" "http://www.w3.org/Graphics/SVG/1.1/DTD/svg11.dtd">
<!-- Creator: CorelDRAW -->
<svg xmlns="http://www.w3.org/2000/svg" xml:space="preserve" width="30.227mm" height="41.526mm" version="1.1" style="shape-rendering:geometricPrecision; text-rendering:geometricPrecision; image-rendering:optimizeQuality; fill-rule:evenodd; clip-rule:evenodd"
viewBox="0 0 3022.7 4152.6"
 xmlns:xlink="http://www.w3.org/1999/xlink"
 xmlns:xodm="http://www.corel.com/coreldraw/odm/2003">
 <g id="Capa_x0020_1">
  <metadata id="CorelCorpID_0Corel-Layer"/>
  <g id="_1673426201248">
   <path class="fil0" d="M1495.93 2014.73c70.08,-19.58 96.87,93.59 26.61,114.47 -68.47,20.35 -119.07,-88.64 -26.61,-114.47zm-1034.41 -277.9c0.12,-28.31 -3.2,-95.56 9.21,-120.86l3.86 -129.35 113.38 426.76 35.58 94.77c2.58,11.24 -3.2,15.14 3.88,41.91 35.24,95.66 38.27,134.11 20.55,238.8l-131.67 739.67c-20.3,114.92 -175.25,954.57 -170.05,990.13 89.32,38.82 261.81,72.67 366.77,92.34 143.16,26.83 260.39,42.6 417.14,42.1 182.12,-0.58 236.88,-33.41 287.33,-173.87 33.23,-92.52 72.44,-257.83 79.83,-369.65 18.13,46.67 41.49,229.01 90.3,370.61 47.61,138.07 108.56,172.29 287.56,172.91 213.95,0.73 593.41,-57.39 784.72,-133.76 4.64,-32.82 -264.1,-1536.52 -312.65,-1788.13 -11.53,-59.74 9.38,-100.08 22.98,-152.19 50.28,-192.62 103.06,-402.86 162.5,-594.7 25.86,376.06 12.07,800.72 12.07,1183.84 0,96.27 -14.7,544.8 -0.91,600.89 10.14,41.26 168.2,77.94 211.5,86.31 73.07,14.13 198.71,12.54 260.19,-20.27l-4.75 -861.66c-20.57,-973.05 33.65,-1023.07 -150.02,-2009.28 -14.69,-78.85 -10.31,-124.57 -66.47,-154.95 -49.08,-26.54 -97.52,-38.71 -146.23,-61.71l-115.53 -43.16c-61.9,-27.72 -500.24,-198.1 -540.22,-203.64 -15.81,340.31 -109.83,624.4 -195.54,913.41 -29.59,99.78 -250.42,781.71 -277.22,819.01 -22.39,-36.26 -146.06,-372.75 -147.69,-406.72 -20.15,-16.52 -42.28,-85.5 -48.99,-115.59 -111.6,-369.13 -295.91,-774.06 -308.94,-1210.26 -39.98,5.01 -113.01,38.79 -158.39,55.84l-458.4 176.86c-53.5,20.33 -100.45,36.93 -152.38,59.25 -72.79,31.28 -74.94,36.42 -90.11,122.9 -56.62,322.73 -152.42,808.53 -151.96,1118.24 1.63,1095.81 1.42,703.45 -9.89,1806.32 126.91,40.74 253.53,23.63 371.17,-15.52 95.08,-31.65 101.42,-18.37 99.29,-122.8 -10.85,-530.71 -6.98,-1000.57 -1.8,-1464.8z"/>
   <path class="fil0" d="M1577.51 142.34c57.54,138.31 21.98,67.48 6.58,166.68 57.26,17.9 113.28,46.09 168.52,69.63 125.47,53.47 113.16,-98.63 113.26,-174.28 0.05,-36.06 12.18,-233.45 -98.98,-177.05 -53.16,26.97 -140.7,84.52 -189.38,115.02z"/>
   <path class="fil0" d="M1144.06 111.23l0.02 186.27c0.03,175.89 188.74,39.87 278.13,11.56 -6.29,-43.53 -23.8,-42.95 -22.07,-87.58 1.58,-40.75 18.72,-42.35 28.81,-79.47 -67.97,-39.81 -197.04,-136.19 -239.83,-117.28 -34.09,15.08 -45.07,38.9 -45.06,86.5z"/>
   <path class="fil0" d="M1456.88 266.53c13.25,4.36 26.02,8.07 45.8,8.04 82.19,-0.13 76.98,-83.03 23.73,-95.31 -75.66,-17.44 -98.2,30.95 -69.53,87.27z"/>
  </g>
 </g>
</svg>
