<?xml version="1.0" encoding="UTF-8"?>
<!DOCTYPE svg PUBLIC "-//W3C//DTD SVG 1.1//EN" "http://www.w3.org/Graphics/SVG/1.1/DTD/svg11.dtd">
<!-- Creator: CorelDRAW -->
<svg xmlns="http://www.w3.org/2000/svg" xml:space="preserve" width="43.802mm" height="47.1mm" version="1.1" style="shape-rendering:geometricPrecision; text-rendering:geometricPrecision; image-rendering:optimizeQuality; fill-rule:evenodd; clip-rule:evenodd"
viewBox="0 0 4380.2 4710"
 xmlns:xlink="http://www.w3.org/1999/xlink"
 xmlns:xodm="http://www.corel.com/coreldraw/odm/2003">
 <defs>
  <style type="text/css">
   <![CDATA[
    .fil0 {fill:#373435}
   ]]>
  </style>
 </defs>
 <g id="Capa_x0020_1">
  <metadata id="CorelCorpID_0Corel-Layer"/>
  <path class="fil0" d="M810.17 2395.13c-24.03,48.64 -58.29,92.22 -84.16,145.99 -17.49,36.36 -51.17,111.06 -84.66,137.79 -3.02,37.04 -111.91,219.73 -136.53,267.72 -46.2,90.07 -88.05,169.43 -136.94,261.18 -124.75,234.09 -221.83,444.73 -336.15,671.51 -34.51,68.46 -52.17,65.44 -9.18,136.48 134.26,221.81 451.66,416.86 699.79,495.74 15.44,5.55 12.34,3.37 29.71,10.38 2.62,1.06 10.38,4.29 12.81,5.44 18.06,8.51 6.52,1.62 17.38,9.74 0.97,0.09 351.73,92.83 462.11,111.9 152.17,26.29 356.76,55.87 519.64,58.17 188.64,2.66 375.52,10.36 566.97,10.02 95.28,-0.16 187.04,-8.59 279.09,-9.95 78.85,-1.16 206.12,-24.23 273.04,-15.53 22.5,-18.8 24.1,-8.28 80.44,-15.34l240.72 -40.14c154.42,-38.14 291.15,-63.75 437.21,-118.73 232.79,-87.62 527,-234.18 668.69,-432.86 50.31,-70.54 93.14,-95.95 48.65,-188.44 -19.06,-39.61 -81.09,-152.51 -84.04,-184.14 -16.28,-12.8 -1.59,2.51 -13.38,-13.69 -6.58,-9.05 -4.23,-5.1 -9.67,-15.99 -10.56,-21.16 -9.51,-22.99 -14.74,-41.87l-4.47 -12.65c-15.43,-12.6 -2.42,1.51 -13.87,-14.37 -4.73,-6.57 -10.01,-17.13 -12.41,-22.07 -10.95,-22.53 -13.81,-30.08 -19.83,-52.07l-13.21 -16.67c-0.86,-1.41 -2.05,-3.72 -2.89,-5.23l-448.65 -854.99c-290.83,-546.85 -453.01,-765.08 -791.34,-1232.3 -57.26,-79.07 -441.73,-539.92 -443.7,-561.72 -6.09,-67.47 335.94,-606.13 345.16,-661.13 -69.49,-18.85 -162.58,-59.5 -226,-87.38 -124.83,-54.89 -177.82,-104.22 -197.52,-112.74 12.26,60.88 119.29,84.32 162.67,139.65 69.96,89.26 32.96,145.21 7.06,233.83 -195.01,-31.15 -231.72,-22.76 -293.71,129.11 -63.77,156.24 -61.42,245.41 -94.51,341.19 -17.07,-46.2 -26.94,-128.55 -41.32,-178.93 -16.62,-58.18 -32.91,-115.86 -54.11,-166.7 -70.3,-168.56 -96.68,-133.01 -288.29,-128.14 -45.88,-66.76 -48.78,-163.44 1.4,-226.16 42.57,-53.21 135.46,-72.38 163.05,-140.31 -30.22,15.3 -21.79,16.86 -48.91,34.41l-151.22 76.95c-61.42,27.03 -156.41,67.6 -221.31,84.55 6.18,40.42 134.16,245.85 163.91,298.38 54.72,96.6 106.62,197.15 155.89,292.65 43.63,84.59 23.73,85.14 -24.61,143.78 -183.17,222.23 -326.29,397.59 -502.24,632.29 -111.1,148.21 -452.66,650.19 -531.82,821.39z"/>
 </g>
</svg>
