<?xml version="1.0" encoding="UTF-8"?>
<!DOCTYPE svg PUBLIC "-//W3C//DTD SVG 1.1//EN" "http://www.w3.org/Graphics/SVG/1.1/DTD/svg11.dtd">
<!-- Creator: CorelDRAW -->
<svg xmlns="http://www.w3.org/2000/svg" xml:space="preserve" width="43.802mm" height="47.1mm" version="1.1" style="shape-rendering:geometricPrecision; text-rendering:geometricPrecision; image-rendering:optimizeQuality; fill-rule:evenodd; clip-rule:evenodd"
viewBox="0 0 4380.2 4710"
 xmlns:xlink="http://www.w3.org/1999/xlink"
 xmlns:xodm="http://www.corel.com/coreldraw/odm/2003">
 <defs>
  <style type="text/css">
   <![CDATA[
    .fil0 {fill:#373435;fill-rule:nonzero}
   ]]>
  </style>
 </defs>
 <g id="Capa_x0020_1">
  <metadata id="CorelCorpID_0Corel-Layer"/>
  <g id="_1709677786000">
   <path class="fil0" d="M2187.69 2362.26c0.95,-0.22 0.62,-0.17 0.95,-0.22 -1.17,0 -2.01,0.05 -2.28,0.11 -0.11,0 -0.22,0.05 -0.33,0.05 0.22,0.11 0.99,0.17 1.66,0.06z"/>
   <polygon class="fil0" points="572.65,4071.54 1021.07,4247.41 1021.07,2473.96 572.65,2298.14 "/>
   <path class="fil0" d="M2741.46 1227.97l-1.56 -0.62c-0.17,0.51 -0.22,1.06 -0.34,1.57l1.9 -0.95z"/>
   <polygon class="fil0" points="1210.97,4321.81 1337.64,4371.46 1337.64,2598.06 1210.97,2548.46 "/>
   <path class="fil0" d="M1254.19 1638.14c-57.51,-52.27 -116.06,-101.03 -178,-152.74 -10.05,-8.44 -20.55,-17.32 -30.77,-25.87l-16.02 -7.93 -680.95 252.12 0 418.22 672.62 268.08 0 -328.4 482.22 -233.68c-82.44,-51.95 -164.87,-114.56 -249.1,-189.8z"/>
   <polygon class="fil0" points="3220.94,4299.03 3801.24,4071.54 3801.24,2298.14 3220.94,2525.74 "/>
   <path class="fil0" d="M3342.81 1450.71l-21.11 10.39c-7.32,6.09 -14.97,12.5 -22.28,18.54 -64.63,53.55 -125.72,104.17 -184.7,157.84 -84.28,75.17 -166.33,137.61 -247.88,189.27l354.1 171.59 0 444.57 805.27 -320.97 0 -418.22 -683.4 -253.01z"/>
   <path class="fil0" d="M2527.27 1973.88l377.16 182.68 0 412.58 126.56 -50.55 0 -393.76 -379.44 -187.21c-36.7,13.96 -78.53,27.2 -124.28,36.26z"/>
   <polygon class="fil0" points="2904.43,4423.18 3030.99,4373.58 3030.99,2600.18 2904.43,2649.83 "/>
   <polygon class="fil0" points="1527.53,2672.63 1527.53,4445.96 2186.98,4704.56 2714.43,4497.68 2714.43,2724.29 2186.98,2931.21 "/>
   <path class="fil0" d="M1717.7 1938.13l-506.73 250.05 0 277.58 126.67 50.42 0 -296.29 506.46 -245.46c-46.92,-8.95 -89.59,-22.34 -126.4,-36.3z"/>
   <polygon class="fil0" points="1527.53,2346.4 1527.53,2591.86 2187.36,2854.87 2714.43,2644.75 2714.43,2283.12 2185.19,2021.91 "/>
   <path class="fil0" d="M3626.38 767.64c-16.15,-38.2 -37.32,-66.62 -65.29,-92.15l-11.29 -9.84 -19.55 -15.07c-14.92,-11.4 -25.19,-16.59 -37.7,-24.41 -24.01,-13.24 -48.25,-24.4 -72.16,-32.77 -48.08,-17.32 -95.45,-27.2 -142.14,-32.9 -93.33,-11.46 -183.92,-3.14 -271.32,13.46 -120.42,24.35 -234.41,71.83 -336.34,137.05 -2.96,-79.25 -11.17,-159.96 -29.05,-241.94 -21.89,-90.04 -53.49,-183.25 -120.24,-270.99 -33.68,-43.62 -75.35,-86.53 -132.42,-120.75 -55.92,-34.63 -129.41,-57.7 -204.53,-57.47l-12.75 0.44 -3.73 0.33 -7.54 0.51c-2.41,0.05 -15.2,1.34 -26.69,2.96 -24.59,3.24 -41.01,7.98 -58.55,12.79 -34.01,10.78 -66.62,24.86 -94.37,42 -57.14,33.9 -98.76,76.46 -133.83,118.74 -68.76,85.95 -107.62,176.1 -135.77,265.34 -22.67,76.41 -36.59,152.59 -44.19,228.22 -91.65,-54.24 -192.45,-94.28 -298.4,-116.35 -87.14,-17.19 -177.78,-25.8 -271.06,-14.63 -46.57,5.59 -93.93,15.47 -141.85,32.73 -23.97,8.33 -48.15,19.61 -72.12,32.63 -12.55,7.98 -22.38,12.73 -37.18,24.06l-20.11 15.42 -11.29 9.77c-26.8,24.24 -48.59,52.45 -64.85,89.75 -16.02,36.59 -21.65,78.02 -19.2,113.61 5.64,72.16 33.23,121.75 58.02,164.15 52.96,83.21 113.61,141.91 174.38,199.05 122.82,111.14 248.59,207.26 365.27,313.44 121.81,108.69 256.86,207.21 411.68,272.55 77.29,30.55 162.53,55.96 251.26,41.27 43.97,-7.71 85.97,-25.24 121.37,-54.33 3.4,-2.7 6.65,-6.04 10.01,-8.95 19.93,4.42 40.37,6.82 61.49,5.99 19.99,-0.51 39.09,-3.98 57.47,-9.06 3.8,3.47 7.42,7.2 11.27,10.34 35.48,29.6 77.24,47.59 121.32,55.63 89.02,15.52 174.64,-9.78 252.17,-40.45 155.44,-65.16 290.82,-164.03 412.96,-272.99 116.95,-106.29 243.18,-202.19 366.89,-312.66 61.16,-56.74 122.36,-114.99 176.27,-197.27 25.3,-42 53.38,-90.7 60.7,-162.58 3.31,-35.46 -1.5,-77.35 -17.02,-114.67zm-1149.43 685.13c-23.24,73.84 -56.18,145.89 -105.45,204.37 -30.27,36.53 -68.41,67.07 -110.08,83.99 -13.13,-16.92 -23.18,-35.4 -30.38,-56.23 -10.67,-32.06 -14.52,-66.75 -13.57,-101.93 0.05,-2.01 0,-4.08 0,-6.1 1.61,-36.12 8.37,-72.77 19.09,-108.02 21.9,-72.03 54.07,-142.13 96.18,-206.08 52.56,-80.82 116.4,-155.99 185.31,-223.07 8.16,137.89 -2.67,278.64 -41.1,413.07zm-286.68 -1070.05c-0.62,0 -1.74,0.05 -2.69,0.05l1.9 -0.05 0.79 0zm-182.19 193.75c29.71,-60.21 65.24,-115.4 101.7,-151.37 17.76,-17.92 35.92,-30.88 48.87,-36.63 5.99,-3.4 10.67,-4.18 14.63,-5.19 -0.05,-0.05 0.11,-0.05 0.33,-0.11 0.29,-0.07 0.68,-0.18 1.02,-0.23 1.56,-0.06 2.74,-0.22 1.34,0.12 0.67,0 1.17,-0.07 2.23,-0.07l6.15 -0.11c5.41,0.79 11.33,1.17 24.68,7.16 12.97,5.36 31,18.03 50.27,34.62 38.48,34.18 81.15,86.3 117.23,145.72 51.38,83.83 92.32,181.51 116.56,285.4 -43.95,46.07 -82.05,94.67 -118.85,144.77 -48.81,67.58 -92.21,139.02 -128.12,214.25 -23.79,50.71 -45.29,102.81 -62.06,156.72 -16.35,-52.56 -37.25,-103.38 -60.32,-152.98 -57.02,-117.97 -129.12,-227.16 -217.42,-326.74 21.61,-112.93 55.46,-221.05 101.76,-315.33zm102.87 1159.47c-39.75,-19.49 -74.61,-51.66 -102.15,-88.96 -44.23,-59.15 -72.55,-130.82 -93.83,-203.14 -32.5,-120.86 -40.55,-247.64 -32.17,-371.86 57.14,59.54 109.86,124.55 154.66,193.97 41.54,64.01 73.6,133.88 95.01,205.86 10.16,34.42 16.46,70.22 17.97,105.51 0.06,2.29 0.28,4.64 0.34,6.98 0.89,35.59 -3.3,70.55 -14.53,102.83 -6.3,17.76 -14.68,33.96 -25.3,48.81zm-128.11 77.53c-70.33,9.38 -144.1,-17.48 -208.51,-55.53 -130.01,-78.79 -236.64,-194.41 -340.51,-308.51 -107.86,-119.18 -217.88,-237.15 -315.12,-355.84 -48.03,-58.53 -94.83,-118.79 -123.77,-172.35 -15.14,-25.86 -21.44,-50.88 -21.55,-58.54 -0.17,-4.02 -0.06,-3.12 -0.24,-3.07 -0.82,0.61 2.08,-3.57 4.6,-6.04 28.64,-31.48 87.51,-54.33 151.57,-65.22 64.4,-10.5 134.6,-12.57 204.25,-4.09 113.04,13.63 226.47,48.65 327.96,106.8 1.39,33.95 3.64,67.75 7.09,101.25 19,171.74 62,339.53 135.66,493.84 36.59,77.14 82.61,150.87 143.6,213.58 31.5,32.63 69.93,62.83 112.93,83.67 -23.07,15.47 -49.81,27.02 -77.96,30.05zm1395.55 -892.4c-30.1,53.73 -77.62,113.77 -126.34,172.3 -98.52,118.52 -209.44,236.42 -317.79,356.06 -104.1,114.38 -211.06,230.43 -341.59,309.13 -64.61,38.03 -138.74,64.67 -209.16,54.68 -30.27,-3.64 -58.97,-17.25 -83.05,-34.68 42.18,-22.85 78.75,-54.96 108.57,-88.98 56.08,-63.44 97.42,-136.72 132.04,-212.34 70.31,-151.36 108.36,-316.9 122.7,-484.91l-0.05 -0.95c1.68,-25.3 3.18,-50.87 4.51,-76.63 112.38,-73.38 242.74,-115.71 372.54,-130.85 70.04,-8.15 140.53,-5.81 205.31,4.8 64.68,11.11 123.16,33.67 152.3,65.69 1.18,1.1 3.03,3.84 3.08,4.18 0,0.17 0,0.95 -0.16,3.07 -0.29,7.99 -7.33,33.47 -22.91,59.43z"/>
  </g>
 </g>
</svg>
