<?xml version="1.0" encoding="UTF-8"?>
<!DOCTYPE svg PUBLIC "-//W3C//DTD SVG 1.1//EN" "http://www.w3.org/Graphics/SVG/1.1/DTD/svg11.dtd">
<!-- Creator: CorelDRAW 2019 (64-Bit) -->
<svg xmlns="http://www.w3.org/2000/svg" xml:space="preserve" width="100%" height="100%" version="1.1" 
viewBox="0 0 4954.2 1607.7"
 xmlns:xlink="http://www.w3.org/1999/xlink">
 <g id="Layer_x0020_1">
  <path class="fil0" d="M2359.18 706.68c-32.07,60.78 -43.68,116.77 -44.5,176.27 -0.19,12.52 5.72,20.19 16.59,20.57 33.93,1.24 67.73,0.63 106.2,-7.41 -26.4,-63.87 -50.42,-122.02 -78.29,-189.43zm228.34 0.43c-26.07,63.55 -49.06,118.66 -71.24,174.22 -3.97,9.96 1.12,18.06 10.92,18.64 28.98,1.76 57.96,3.06 86.96,3.68 9.91,0.21 19.02,-4.42 18.6,-18.01 -2,-60.12 -12.12,-117.59 -45.24,-178.53zm-114.15 130.27c25.67,-51.78 48.13,-97.41 70.95,-142.82 6.37,-12.62 3.89,-21.68 -4.87,-31.67 -39.85,-45.33 -92.74,-44.99 -132.91,0.72 -9.03,10.31 -10.25,18.78 -3.86,31.38 23.09,45.38 45.42,91.3 70.69,142.39zm-42.86 442.17c4.8,-1.86 4.64,-6.84 4.74,-11.05 2.48,-69.04 5.2,-138.11 6.9,-207.17 0.62,-23.97 -1.62,-48.02 -2.18,-72.05 -0.35,-16.94 -7.41,-24.53 -22.29,-23.41 -17.11,1.27 -34.39,0.85 -51.31,3.43 -17.57,2.64 -30.44,-17.05 -47.94,-13.13 -9.24,103.7 50.64,275.12 112.08,323.38zm85.02 1.04c13.29,-0.61 17.91,-12.81 23.87,-21.73 45.76,-68.41 73.75,-145.73 86.65,-230.27 2.89,-19.23 5.14,-38.72 6.38,-58.19 0.89,-13.99 -6.33,-20.67 -17.31,-12.97 -23.49,16.54 -48.5,10.51 -73.4,9.24 -33,-1.68 -33.38,-1.52 -35.03,35.23 -3.99,88.97 3.97,177.66 4.9,266.52 0.06,4.07 2.55,8.1 3.94,12.17zm1750.53 -60.27c4.28,1.14 8.12,3.41 11.58,2.87 20.91,-3.24 41.77,-6.66 62.49,-10.89 39.08,-7.97 46.13,-17.42 46.32,-62.01 0.03,-10.41 -0.91,-21.2 -3.35,-31.19 -17.03,-69.15 -51.97,-127.5 -87.18,-185.65 -4.85,-7.96 -11.53,-13.16 -20.04,-6.92 -16.61,12.17 -34.99,23.75 -45.14,42.86 -9.35,17.55 5.48,33.93 11.67,49.51 23.92,60.36 36.8,121.97 22.72,188.13 -0.86,3.86 0.5,8.33 0.93,13.29zm-3585.59 2.66c-5.01,-115.15 -5.41,-115.36 33.1,-225.36 6.45,-18.43 6.26,-30.9 -8.54,-42.25 -8.74,-6.68 -16.79,-14.51 -24.83,-22.24 -12.57,-12.09 -22.91,-11.63 -32.58,4.82 -31.45,53.67 -62.72,107.37 -81.23,169.17 -7.04,23.48 -7.78,47.03 -3.2,70.92 2.96,15.37 8.82,27.49 24.96,30.13 29.83,4.84 58.94,15.42 92.32,14.81zm1082.83 -409.84c12.65,-2.96 15.42,-14.3 20.43,-22.61 42.56,-71.2 92.08,-136.21 140.39,-202.22 35.27,-48.15 65.66,-49.65 110.03,-11.93 5.14,4.37 10.39,8.57 17.4,14.38 16.96,-30.68 32.33,-60.46 49.49,-88.8 9.69,-16.09 7.05,-26.77 -5.14,-38.25 -38.57,-36.17 -81.27,-49.25 -129.66,-31.19 -37.35,13.93 -67.77,40.49 -95.92,70.67 -50.47,54.04 -92.02,116.52 -131.18,181.22 -5.24,8.63 -12.17,17 -7.65,28.63 12.71,32.5 15.64,69.31 31.81,100.1zm1132.08 -221.69c12.14,-10.6 20.08,-18.46 28.79,-25 30.63,-23.01 59.53,-20.64 86.65,7.38 7.8,8.07 14.89,17.17 21.39,26.6 46.34,67.63 97.56,130.94 138.71,203.18 2.47,4.39 5.22,11.24 16.07,5.35 8.57,-29.27 18.02,-61.85 27.64,-94.34 3.39,-11.38 -0.9,-20.03 -6.37,-29.11 -41.15,-68.54 -85.2,-134.3 -139.35,-190.37 -26.61,-27.52 -55.62,-51.25 -90.51,-63.44 -48.5,-16.92 -91.09,-3.49 -128.86,33.83 -10.63,10.49 -12.76,20.69 -4.37,34.99 16.78,28.61 32.26,58.26 50.21,90.93zm-791.92 170.93c-41.02,143.72 -45.25,285.42 -13.16,433.37 60.76,-34.83 111.95,-73.4 157.66,-121.58 7.8,-8.21 9.53,-16.3 7.64,-27.83 -10.57,-65.39 -13.16,-131.26 -8.31,-197.53 0.85,-11.59 -1.79,-18.89 -12.76,-23.84 -41.55,-18.89 -82.57,-39.29 -131.07,-62.59zm751.11 432.55c15.43,-48.21 19.1,-93.14 21.66,-138.05 5.06,-89.31 -1.66,-177.39 -24.59,-263.35 -8.52,-32.01 -9.24,-32.2 -34.38,-19.65 -35.02,17.5 -68.65,39.02 -105.56,51.19 -14.73,4.83 -13.29,15.83 -12.62,27.76 3.49,63.26 3.38,126.33 -7.57,188.82 -2.53,14.46 0.03,24.95 10.29,35.69 45.12,47.09 95.85,84.14 152.77,117.59zm-10.41 -815.17c-53.99,-52.55 -93.81,-114.77 -140.55,-169.85 -36.36,-42.78 -78.61,-75.28 -124.87,-102.39 -35.1,-20.57 -71.81,-28.45 -110.8,-28.31 -71.79,0.26 -129.1,40.53 -182.78,87.71 -69.28,60.86 -115.06,147.58 -183.14,213.93 9.83,8.02 14.97,12.33 20.24,16.46 30.07,23.57 29.97,23.39 56.39,-7.41 72.37,-84.38 155.6,-153.79 237.93,-224.48 37.48,-32.15 74.93,-32.86 112.88,-0.53 79.4,67.6 159.07,134.88 229.7,214.65 36.76,41.53 36.42,41.93 85,0.22zm-406.91 -100.87c-3.08,-1.33 -6.18,-2.69 -9.24,-4 -48.18,46.7 -95.76,94.27 -140.55,145.3 -61.51,69.97 -110.25,150.17 -146.79,240.01 -3.33,8.21 -6.24,16.65 -9.78,24.75 -4.36,10.04 -2.02,17.15 6.31,22.39 39.03,24.46 78.02,48.93 119.01,74.67 7.35,-24.51 12.15,-46.51 20.38,-66.7 26.04,-63.76 57.26,-126.09 117.19,-152.59 37.88,-16.73 50.82,-37.5 44.54,-81.56 -3.81,-26.48 -1.01,-54.18 -1.07,-81.32 -0.05,-40.33 0,-80.62 0,-120.95zm80.2 -3.7c-3.25,0.93 -6.52,1.91 -9.8,2.87 0,82.25 0.35,164.51 -0.27,246.76 -0.13,15.81 7.19,20.8 18.11,24.29 55.75,17.95 90.8,63.04 121.91,115.67 21.05,35.64 28.08,77.32 44.62,116.85 33.4,-21.23 65.31,-41.74 97.43,-61.85 32.61,-20.43 32.39,-20.11 17.95,-57.16 -63.1,-162.02 -172.54,-278.6 -289.95,-387.43zm1033.29 646.71c13.03,-21.13 16.7,-43.53 23.33,-64.49 16.49,-51.94 41.26,-97.96 77.3,-134.94 42.69,-43.83 81.32,-38 112.06,16.92 21.3,38.09 39.87,78.15 60.35,116.85 10.62,20 18.59,42.4 35.13,60.91 22.4,-30.87 29.92,-67.52 48.53,-96.02 17.9,-27.32 16.09,-52.58 3.67,-79.85 -36.03,-79.06 -85.74,-144.42 -150.77,-194.33 -23.42,-17.98 -48.14,-21.39 -75.63,-13.34 -82.01,24.15 -140.1,83.15 -181.03,164.26 -33.14,65.6 -31.65,67.19 2.28,133.39 15.06,29.43 24.99,62.37 44.78,90.64zm-2155.83 7.29c18.88,-39.84 29.4,-73.86 48.47,-99.75 33.54,-45.49 24.58,-86.11 0.94,-130.51 -44.38,-83.21 -103.03,-144.31 -188.67,-166.77 -21.76,-5.72 -42.07,-3.83 -61.07,9.68 -72.74,51.64 -126.33,122.75 -162.93,210.6 -5.54,13.32 -11.99,30.07 -4.28,43.47 22.19,38.57 33.93,84.2 60.32,120.39 12.95,-10.98 17.56,-25.59 24.22,-38.41 23.54,-45.41 45.67,-91.81 70.23,-136.47 31.56,-57.46 71.09,-63.37 114.67,-17.54 34.57,36.34 59.29,80.66 74.98,131.37 6.49,21.04 13.13,42.03 23.12,73.94zm-333.58 400.63c-8.26,-19.79 -12.71,-30.51 -17.19,-41.24 -27.3,-65.15 -32.38,-132.67 -16.96,-202.54 5.83,-26.36 12.25,-52.79 23.76,-76.41 10.81,-22.27 6.39,-37.77 -6.74,-56.55 -33.08,-47.3 -71.65,-88.61 -107.74,-132.53 -7.11,-8.66 -16.17,-15.58 -25.12,-21.87 -23.17,-16.25 -28.1,-15.24 -39.29,11.66 -38.51,92.51 -76.54,185.25 -114.39,278.13 -14.89,36.55 -18.54,75.22 -12.76,114.8 2.66,18.22 8.73,32.65 26.36,41.07 18.22,8.71 35.97,17.82 55.44,22.88 75.7,19.73 151.23,40.27 234.63,62.6zm2831.14 -6.54c6.02,4.9 12.57,1.98 18.78,0.33 75.96,-20.43 151.87,-41.32 227.92,-61.32 12.04,-3.17 21.17,-12.81 32.36,-16.33 21.71,-6.87 27.54,-24.74 30.95,-47 5.91,-38.65 0.64,-75.73 -13.29,-110.43 -37.4,-93.25 -75.99,-185.84 -114.69,-278.4 -10.98,-26.21 -15,-27.41 -35.91,-13.29 -11.26,7.62 -22.42,16.51 -31.45,27.25 -32.07,38.03 -62.68,77.67 -94.83,115.62 -21.68,25.55 -25.89,49.2 -11.77,84.01 38.22,94.05 39.45,189.48 -5.51,282.55 -2.53,5.27 -5.01,10.44 -2.56,17.01zm-2646.48 -516.64c-45.36,93.95 -91.95,172.44 -127.58,258.44 -37.14,89.55 -31.07,174.62 12.81,258.71 10.17,19.61 21.25,31.86 41.92,35.91 57.32,11.26 114.24,25.12 171.37,37.58 25.2,5.49 50.56,10.05 77.48,15.32 -2.98,-19.93 -14.59,-26.54 -22.13,-36.52 -29.06,-38.59 -48.18,-81.98 -56.07,-132.56 -7.83,-50.16 -7.56,-101.06 6.32,-147.67 16.61,-55.78 9.24,-98.39 -23.42,-143.25 -30.12,-41.34 -53.85,-88.83 -80.7,-145.96zm2279.42 605.5c87.49,-14.62 173.82,-35.58 260.28,-55.56 9.51,-2.21 16.72,-8.09 21.9,-17.66 37.31,-68.98 58.94,-141.25 37.07,-223.02 -8.52,-31.83 -19.6,-62.46 -33.88,-91.28 -31.8,-64.19 -64.54,-127.79 -97.11,-191.45 -3.07,-5.99 -5.33,-13.96 -12.87,-14.25 -6.41,1.55 -9.08,7.06 -11.66,12.09 -30.87,59.7 -62.86,118.5 -100.79,172.65 -9.27,13.24 -5.75,24.53 -2.5,37.75 11.37,46.45 19.73,93.35 20.56,142.05 1.41,79.26 -19.76,147.82 -69.44,204.26 -5.33,6.05 -12.86,10.97 -11.56,24.42zm-851.45 -272.32c-4.71,5.06 -7.62,6.66 -8.31,9.09 -30.85,108.35 -99.91,186.1 -164.79,267.17 -20.96,26.21 -34.63,26.35 -55.35,-0.87 -14.67,-19.32 -27.41,-40.57 -44.51,-57.48 -47.89,-47.47 -80.55,-106.94 -105.66,-172.65 -5.59,-14.6 -7.22,-32.31 -23.31,-44.56 -44.64,43.86 -97.05,75.35 -148.81,107.87 -14.54,9.16 -13.27,19.02 -7.03,33.13 18.67,42.3 44.96,77.78 74.5,110.52 13.23,14.67 29.83,26.87 37.61,45.96 9.18,22.57 23.23,26 41.68,22.24 31.36,-6.31 62.92,-10.54 94.69,-7.56 106.73,10.12 214.04,-10.65 320.64,8.18 10.06,1.76 21.68,2.71 27.32,-11.56 10.66,-27.12 31.92,-43.63 49.47,-63.85 27.08,-31.21 51.38,-64.75 68.71,-104.3 6.21,-14.14 5.89,-24.45 -8.09,-33.29 -51.7,-32.76 -104.17,-64.12 -148.76,-108.04zm-543.23 316.14c-6.95,-16.55 -19.2,-23.44 -29.03,-32.79 -53.27,-50.82 -89.52,-114.19 -109.97,-189.69 -44.3,-163.6 -41.88,-326.63 3.83,-489.27 3.22,-11.48 7.24,-22.67 10.22,-34.2 4.13,-15.9 -3.22,-27.12 -14.56,-33.13 -11.59,-6.1 -15.39,7.8 -20.64,15.29 -27.3,38.8 -54.74,77.53 -81.14,117.14 -45.04,67.52 -83.07,139.7 -108.64,219.79 -12.26,38.44 -20.03,77.62 -22,118.88 -5.6,117.59 42.53,208.39 108.11,291.41 11.24,14.25 25.41,14.47 39.9,15.08 66.11,2.66 132.22,5.22 198.38,7.64 7.72,0.29 15.85,1.68 25.54,-6.15zm683.76 -0.48c8.81,7.48 15.5,7.01 22,6.79 54.17,-1.76 108.38,-3.2 162.53,-5.51 76.95,-3.3 76.06,-4.34 122.71,-75.62 56.89,-86.97 79.29,-182.72 60.35,-289.34 -10.87,-61.05 -34.17,-116.8 -60.19,-171.26 -40.76,-85.34 -98.21,-156.7 -149.08,-233.57 -4.48,-6.74 -8.84,-16.94 -18.65,-9.72 -7.8,5.75 -15.45,13.32 -14.49,25.12 0.72,8.75 3.87,17.44 6.64,25.83 38.13,115.23 46.79,234.9 36.09,355.93 -12.55,142.07 -51.41,270.99 -159.05,359.47 -2.95,2.4 -4.9,6.47 -8.86,11.88zm353.5 -5.91c61.08,-3.84 118.69,-9.73 176.38,-10.44 51.43,-0.68 88.7,-24.3 123.01,-67.63 52.65,-66.49 68.69,-139.71 51.53,-225.42 -22.32,-111.6 -62.7,-214.12 -118.82,-308.44 -21.94,-36.89 -39.63,-77.9 -69.62,-108.72 -4.08,3.84 -7.51,6.29 -10.13,9.59 -36.54,45.89 -56.83,105.21 -95.17,149.74 -9.61,11.14 -1.17,22.49 2.99,33.16 16.22,41.37 30.29,83.67 37.96,128.17 23.54,136.27 4.1,260.55 -80.44,366.24 -6.05,7.59 -13.91,14.04 -17.69,33.75zm-1391.27 -0.06c0.69,-18.91 -8.39,-24.58 -14.3,-31.88 -83.02,-102.39 -103.59,-223.6 -83.42,-357.1 7.46,-49.35 22.32,-96.07 40.97,-141.19 6.15,-14.92 8.84,-26.51 -4.38,-39.42 -19.3,-18.89 -30.02,-45.61 -43.67,-69.58 -16.36,-28.71 -32.88,-57.36 -55.17,-82.54 -30.29,33.3 -47.81,72.5 -69.12,108.27 -57.72,96.88 -97.99,202.48 -121.43,317.02 -24,117.14 26.8,196.59 97.88,267.34 8.21,8.17 18.95,10.63 29.52,12.04 73.59,9.61 147.54,12.14 223.12,17.04zm2661.06 -263.77c26.74,0.51 46.72,-7.75 67.17,-12.46 81.82,-18.81 163.86,-35.46 247.87,-33.03 40.24,1.17 79.05,9.7 114.77,31.46 69.15,42.14 96.92,116.5 76.31,202.18 -24.48,101.59 -120.63,180.7 -213.06,175.24 -69.86,-4.13 -124.06,-69.71 -120.01,-145.13 2.77,-51.22 38.83,-89.87 83.66,-89.85 19.87,0 36.54,7.01 46.69,27.7 9.62,19.63 5.06,37.85 -5.54,55 -2.29,3.65 -5.22,6.82 -7.64,10.39 -7.73,11.27 -6,20.61 6.55,22.75 68.16,11.51 120.31,-39.1 120.52,-112.43 0.08,-24.74 -14.17,-41.42 -32.25,-53.45 -25.92,-17.26 -54.34,-22.96 -83.88,-23.31 -50.55,-0.56 -100.39,7.75 -149.77,18.46 -67.41,14.56 -135.04,26.15 -201.63,47.22 -201.39,63.77 -403.2,126.09 -606.27,182.4 -228.19,63.2 -460.26,96.79 -695.24,108.27 -189.27,9.27 -378.3,14.54 -567.67,6.43 -64.75,-2.75 -129.74,0.82 -194.58,2.54 -279.72,7.51 -558.64,-5.24 -836.02,-47.62 -160.13,-24.48 -318.53,-61.63 -473.9,-112.13 -143.83,-46.75 -289.87,-83.98 -433.12,-132.59 -99.4,-33.72 -201.01,-51.22 -303.02,-67.71 -24.8,-3.99 -50.14,-4.12 -75.25,-4.95 -15.9,-0.53 -31.59,2.77 -46.96,7.88 -40.22,13.37 -62.33,37.42 -64.03,70.16 -1.97,38.7 23.79,86.24 56.2,101.35 19.74,9.21 40.59,14.49 62.14,10.36 12.95,-2.51 20.11,-9.22 8.71,-24.03 -3.49,-4.53 -7.25,-8.97 -9.83,-14.17 -18.62,-37.02 -1.38,-73.83 36.42,-78.23 56.01,-6.47 100.81,51.59 90.39,117.28 -9.51,60.11 -54.44,108.48 -108.14,116.5 -110.51,16.47 -225.17,-92.74 -230.77,-219.45 -2.71,-61.26 19.87,-108 62.71,-142.87 39.07,-31.78 83.89,-43.6 131.01,-45.44 85.37,-3.32 168.74,13.66 251.87,32.95 20.24,4.69 40.19,12.57 63.9,12.73 -17.05,-130.3 44.32,-224.56 104.76,-318.21 27.08,-41.95 61.14,-42.81 95.94,-8.66 13.84,13.64 27.08,28.11 41.84,43.47 16.83,-29.22 26.39,-63.71 40.54,-95.54 8.94,-20.19 16.38,-41.28 26.18,-60.88 24.34,-48.83 57.29,-61.8 104.12,-43.13 22.31,8.89 41.33,25.38 64.51,39.69 22.96,-83.05 64.69,-148.04 118.31,-203.07 80.17,-82.28 133.95,-102.42 248.35,-33.08 61.47,37.26 110.61,92.64 148.57,159.95 4.23,7.5 8.9,14.67 13.56,21.88 0.64,0.99 2.42,1.05 4.37,1.82 14.83,-10.28 22.07,-28.72 32.65,-43.63 38.89,-54.86 78.3,-60.67 126.49,-17.82 7.17,6.34 14.04,13.13 20.62,19.31 13.45,-7.57 16.78,-21.36 22.69,-32.44 32.68,-60.94 72.64,-115.2 118.1,-163.91 53.81,-57.67 115.18,-96.77 192.36,-89.74 15.29,1.39 23.73,-5.59 32.81,-18.64 37.85,-54.34 76.74,-107.74 115.47,-161.28 50.77,-70.16 114.29,-120.31 187.48,-155.66 72.13,-34.83 143.81,-34.78 215.86,0.32 71.75,35 134.64,83.66 184.66,152.57 38.81,53.43 77.99,106.62 115.46,161.25 11.09,16.17 21.77,22.83 39.75,21.33 59.9,-5 111.78,19.82 157.83,61.26 57.7,51.94 104.15,115.47 144.07,185.55 7.73,13.53 11.49,30.93 26.54,39.16 11.34,-10.1 22.1,-21.34 34.25,-30.16 37.9,-27.57 72.58,-21.68 103.21,15.8 15.1,18.48 24.96,42.24 45.97,61.02 25.12,-56.95 61.83,-99.73 101.7,-139.34 42.64,-42.34 90.5,-72.14 146.68,-85.41 38.8,-9.17 74.09,-2.64 106.38,21.39 76.25,56.57 134.72,130.51 167.22,228.82 2.29,6.93 5,13.67 7.77,21.1 20.99,-12.55 40.06,-26.22 60.59,-35.83 49.5,-23.15 84.49,-9.11 109.59,44.8 17.33,37.26 31.5,76.39 47.62,114.4 5.57,13.05 7.19,29.38 20.72,37.02 14.33,-7.08 20.64,-23.01 30.82,-34.46 38.75,-43.58 73.89,-42.54 107.28,5.54 33.83,48.64 62.01,101.5 83.48,158.67 18,47.78 29.09,96.98 14.52,154.37z"/>
 </g>
</svg>
