<?xml version="1.0" encoding="UTF-8"?>
<!DOCTYPE svg PUBLIC "-//W3C//DTD SVG 1.1//EN" "http://www.w3.org/Graphics/SVG/1.1/DTD/svg11.dtd">
<!-- Creator: CorelDRAW 2019 (64-Bit) -->
<svg xmlns="http://www.w3.org/2000/svg" xml:space="preserve" width="100%" height="100%" version="1.1" style="shape-rendering:geometricPrecision; text-rendering:geometricPrecision; image-rendering:optimizeQuality; fill-rule:evenodd; clip-rule:evenodd"
viewBox="0 0 3125.2 6065.6"
 xmlns:xlink="http://www.w3.org/1999/xlink">
 <defs>
  <style type="text/css">
   <![CDATA[
    .fil0 {fill:#01777E}
   ]]>
  </style>
 </defs>
 <g id="Layer_x0020_1">
  <metadata id="CorelCorpID_0Corel-Layer"/>
  <g id="_2746338328784">
   <path class="fil0" d="M2653.97 3570c-11.81,-1.56 -85.34,12.67 -102.3,16.55 -16.49,3.77 -94.56,11.58 -69.8,40.11 11.55,13.31 93.54,4.55 114.46,3.41 37.94,-2.08 67.7,-15.56 57.64,-60.07z"/>
   <path class="fil0" d="M2887.61 2453.53c61.65,6.55 107,-8.93 94.12,-80.6 -12.26,0.25 -62.23,15.41 -75.86,20.29 -32.29,11.58 -36.76,32.38 -18.26,60.31z"/>
   <path class="fil0" d="M2832.04 2728.69c8.94,0.65 49.71,-9.42 58.34,-13.4 22.78,-10.53 28.27,-20.3 31.85,-46.53 -23.79,0.03 -46.75,2.79 -68.65,9.97 -24.92,8.16 -26.51,23.76 -21.54,49.96z"/>
   <path class="fil0" d="M2907.52 1541.1c1.83,13.98 -0.23,14.62 11.21,24.77 15.32,13.59 59.11,15.71 65.11,-11.03 11.34,-50.62 -50.36,-27.08 -76.32,-13.74z"/>
   <path class="fil0" d="M2635.68 3258.64c13.99,-0.89 57.68,-12.71 75.39,-17.54 38.52,-10.52 36.59,-2.1 71.29,-24.5 5.07,-56.77 -8.49,-44.6 -75.41,-26.2 -19.94,5.49 -33.06,9.1 -47.34,21.66 -13.99,12.31 -26.02,26.34 -23.93,46.58z"/>
   <path class="fil0" d="M2549.29 750.03c38.31,27.76 116.15,13.63 164.63,10.9 -0.22,-28.76 -45.7,-54.51 -75.55,-53.09 -24.37,1.15 -78.45,23.97 -89.08,42.19z"/>
   <path class="fil0" d="M2790.49 2815.37c14.39,14.35 14.97,16 65.42,3.27 28.83,-7.28 34.95,-25.46 33.92,-55.21 -31.67,2.43 -97.52,12.98 -99.34,51.94z"/>
   <path class="fil0" d="M2029.56 4833.89c19.67,1.87 97.3,-8.96 118.38,-15.24 44.76,-13.33 72.97,-7.73 70.17,-66.58 -31.13,1 -78.95,17.27 -111.68,25.37 -33.06,8.17 -73.32,17.72 -76.87,56.45z"/>
   <path class="fil0" d="M2593.29 3358.09c63.47,6.64 155.92,-1.92 157.1,-76.9 -49.97,3.02 -146.73,25.5 -157.1,76.9z"/>
   <path class="fil0" d="M2567.76 3454.97c20.72,9.63 71.43,9.19 96.08,2.6 24.61,-6.58 42.81,-29.63 44.73,-56.52 -46.19,-2.78 -146.19,-7.96 -140.81,53.92z"/>
   <path class="fil0" d="M2684.94 976.68c14.28,29.85 124.24,24.68 148.34,7.57l-1.48 -36.15c-30.66,-10.18 -135.1,7.45 -146.86,28.58z"/>
   <path class="fil0" d="M2860.11 2543.81l93.48 -6.89c6.76,-13.07 4.5,-33.86 4.54,-48.62 -19.68,-0.19 -46.33,6.95 -62.97,12.81 -25.23,8.87 -30.18,14.79 -35.05,42.7z"/>
   <path class="fil0" d="M2821.45 1960.73c-8.24,2.35 25.95,23.87 -23.46,127.31l-139.2 61.67 4.18 12.01 124.64 3.12c-2.21,16.06 -5.11,67.5 -12.6,78.49l-171.02 24.47 -0.01 19.08c21.52,0.84 153.73,1.47 162.35,9.02 0.14,85.4 -213.26,66.37 -280.86,75.15l2.49 25.63 246.24 -23.18c0.21,19.93 5.72,47.94 -1.34,66.61l-254.04 30.69 0.43 14.9 222.11 2.04c42.51,109.85 -230.96,44.58 -264.85,105l244.62 -12.47c5.3,13.68 3.85,54.3 -5.14,65.07l-95.69 5.81 -1.99 10.79 81.36 21.58 -2.7 59.41 -128.57 38.9 1.6 11.01 99.22 -2.94c75.2,136.95 -256.35,78.06 -272.72,119.46l0.34 8.73c512.87,-14.26 87.53,68.47 -125.85,105.35l3.43 21.44c72.9,-9.05 593.94,-28.14 241.13,52.58 -49.56,11.34 -104.06,23.02 -154.1,32.3 -38.31,7.11 -320.98,48.88 -322.49,49.7 13.17,56.66 199.52,-5.15 245.63,-14.45 111.69,-22.53 174.15,-32.89 290.2,-30.82l-30.12 96.45c-15.98,-4.06 -346.15,41.55 -391.22,47.14 -17.65,56.77 114.49,7.54 164.6,5.94 33.95,-1.09 200.49,-11.83 216.21,-8.38l-427.02 122.82 1.16 12.81c744.79,-28.03 56.99,53.78 14.61,110.13l326.13 -5.22c-10.8,184.23 -253.34,47.43 -252.2,128.63l189.58 2.6c81.85,139.16 -380.09,110.34 -401.87,163.72l3.74 20.99c781.79,-135.35 136.67,106.83 136.72,107.66 286.65,-17.55 319.08,214.78 138.53,102.54l-342.87 42.95 1.97 21.52 359.54 30.22 -42.3 -6.21 9.77 42.41 -15.16 -6.91 -46.78 115.64 -95.94 4.82 -2.42 12.46 37.66 94.64 -11.89 -31.48c-18.4,-3.75 -92.46,13.16 -115.73,16.83l-1.11 21.11 116.04 10.73 -7.36 49.94 -213.18 20.08 0.29 24.27 181.7 3.62c7.36,167.84 -290.43,25.46 -290.84,102.89l245.37 1.73c8.23,146.14 -199.99,26.14 -212.14,111.59 355.33,2.93 112.75,60.63 -75.32,78.25l1.83 26.33 205.38 -2.26c6.02,10.68 0.48,46.51 -0.02,60.14l-186.33 13.31 0.17 19.14c28.74,1.86 148.75,15.08 167.7,8.62l-23.64 67.44c-3.15,-1.1 -91.9,-52.48 -85.45,33.82l72.27 -20.55c-0.96,68.66 -22.54,61.11 -44.49,95.8 -4.67,7.38 -14.54,85.59 -25.09,113.63 -25.44,67.55 -50.68,131.16 -72.69,199.73 -22.98,71.6 -43.54,128.36 -73.19,198.14 -66.61,156.74 -49.16,75.29 -129.53,143.05 -2.44,17.14 35.49,72.28 0.62,103.26 -22.65,20.12 -79.86,12.48 -102.34,-12.47l37.75 -54.23c-17.15,-23.26 -60.62,-11.65 -81.38,-37.01 -32.59,-39.8 18.16,-50.34 22.93,-69.14l-77.07 -48.82 7.81 -13.86c14.96,-13.37 117.02,-42.54 127.84,-56.67l-19.56 -36.93 -153.59 20.54 -2.83 -19.71 84.99 -16.82 0.07 -52.93 59.98 -41.61 -10.48 -18.39 -170.38 34 -4.91 -15.1 93.99 -36.39 -11.9 -42.73 94.14 -36.18c-1.39,-69.53 -164.22,17.67 -208.17,23.74l-30.32 -59.96 114.65 -14.82 9.57 -35.2 90.33 -20.22 -3.02 -25.69 -243.95 15.58 -4.36 -33.59 97.59 -22.71 8.67 6.7 8.41 -99.33 -12.86 -1.09c-35.97,-19.05 -115.55,47.29 -136.43,1.23 -19.93,-43.98 114.45,-28.97 118.94,-28.86l10.22 -58.93 -128.54 17.74 -1.87 -9.06 75.58 -24.17 0.81 -18.27 -135.97 -10.18 -4.4 -17.49 111.38 -35.21 -0.75 -24.14 -127.23 -1.34 -20.94 -40.53 229.23 -45.41c14.53,-63.9 -81.35,-8.8 -116.37,-5.08 -27.12,2.87 -155.97,16 -137.33,-37.94l171.2 -21.37 -1.81 -27.65 -185.03 -8.52 139.85 -30.53 -1.25 -20.91 -166.91 -12.57 -1.54 -14.67 260.8 -34.86 -2.4 -21.26 -295.69 7.33 -1.39 -26.13 187.73 -22.05 -0.41 -11.57 -216.32 -22.48 1.48 -19.4 291.99 -20.93 0.28 -20.54 -321.33 -8.11 -0.55 -23.98 422.02 -20.3 -0.89 -18.55c-15.6,-47.58 -442.63,50.65 -452.56,-43.94l229.93 -24.15 -1.38 -19.59 -234.51 2.95 -0.34 -14.95 208.72 -6.59 2.62 -23.14 -240.08 -34.22 0.69 -15.91 170.61 -7.58 5.51 -11.83 -61.06 -31.59 64.87 -17.05 0.31 -14.14 -220.98 -17.78 -0.47 -18.72 245.87 -16.46 -0.11 -11.9 -286.94 -24.9 0.48 -22.49 397.87 -24.6 -0.68 -11c-39.27,-68.29 -372.09,42.64 -416.7,-38.02l-0.52 -14.21 288.49 -10.59 0.67 -13.24 -294.04 -20.8 147.02 -33.26 -3.59 -9.01 -195.49 -20.31 -1.18 -19.89 338.63 -69.72c-1.85,-55.76 -211.72,-42.94 -258.79,-44.31 -177.68,-5.17 -184.48,-33.08 -4.15,-52.19l-4.15 -10.53 86.92 -41.13 -265.22 -47.39 273.35 -68.97 -1.33 -17.79 -293.72 -18.02 -1.36 -16.78 176.31 -24.85 -0.05 -18.36 -199.34 -2.89 -1.43 -10.02 346.51 -54.24 -2.43 -15.53c-55.79,-3.68 -397.62,33.56 -386.87,-24.58l338.18 -64.66c-10,-72.9 -309.7,-3.44 -376.75,-22.73l-10.01 -39.43 156.94 -16.19 -0.92 -18.49 -109.01 -8.48 0.15 -7.92 636.51 -70.84 -1.48 -13.31c-44.98,-72.08 -727.58,100.48 -723.11,7.3l-0.29 -9.15 277.98 -8.73 2.45 -17.52 -115.21 -25.67 -1.82 -9.77 612.08 -105.83 -2.65 -15.28c-65.11,-97 -813.05,185.92 -816.57,44.48l-1.09 -10.16 250.46 -27.03 2.89 -14.02 -279.34 -68.44 -0.27 -19.27 203.39 -28.76 0.04 -15.76 -217.1 -9.35 -2.22 -11.18 148.68 -41.6 -2.22 -16.01 -161.67 3.69c-15.92,-69.3 169.97,-35.04 216.19,-72.15l0.44 -11.09 -184.13 -7.26 128.99 -35.94 -0.11 -10.47 -198.7 -9.21 -0.75 -20.26 221.58 -24.64 -0.04 -15.43 -183.17 -13.64 149.9 -30.87 -0.5 -20.92 -209.41 3.96c-8.28,-28.54 -19.64,-57.35 -22.61,-86.98l488.17 -60.01c-9.43,-66.98 -410.56,24.45 -477.67,18.96l-5.97 -16.78 167.02 -59.51 -2.31 -20.53 -183.58 18.32c-22.13,-73.11 134.19,-44.35 162.64,-79.73l-0.19 -9.63 -163.09 3.2 -3.74 -21.41 168.63 -37.63 -2.11 -18.92 -155.68 -9.96 128.16 -30.71 0.43 -13.24 -138.47 -13.39 0.65 -15.12 204.53 -42.38 -0.63 -15.1 -204.76 8.83c18.5,-73.93 210.27,-38.73 237.09,-64.07l-0.02 -19.14 -224.56 0.19 -3.78 -24.12 308.6 -57.74 -0.62 -14.03 -291.4 5.91 4.64 -55.42 176.24 -36.16 -1.41 -13.82 -153.39 4.1c-3.93,-87.99 213.5,-10.4 215.68,-85.63l-189.18 -5.52c-28.59,-85.85 200.03,-26.74 213.76,-92.53l-185.77 -5.48 -3.06 -24.01 184.98 -26.13 4.56 -10.3c-17.92,-4.3 -121,-24.9 -127.4,-33.4l151.63 -38.26 -1.28 -13.97 -155.65 3.68 -2.86 -12.34 138.34 -58.31 -4.17 -11.69 -123.15 10.19 -3.36 -22.25 294.75 -51.96 -3.98 -23.19c-35.03,3.47 -234.43,18.71 -251.33,26.68 -64.4,-82.96 85.97,-169.01 163.14,-269.91 50.56,6.41 -3.78,47.53 97.43,10.41 -29.13,-27.2 -62.82,-52.27 -85.02,-85.55l167.99 -75.84 20.25 -49.13 -50.47 8.25c-0.03,-77.83 241.86,-38.4 285.45,-71.05l0.52 -13.09 -188.46 -7.4 -4.93 -15.49 273.56 -79.5 -3.32 -18.43 -128.89 13.7 -2.05 -13.26 165.37 -28.02 0.3 -14.82 -45.8 -20.89 -1.13 -12.31 346.34 -50.65 0.04 -11.63 -31.94 -18.31c77.71,-100.48 687.29,112.1 708.67,186.95l-85.8 26.88c4.81,64.17 237.05,-41.38 254.86,71.1l-51.83 32.97 125.16 21.91 -0.06 14.19 -80.15 38.31 3.94 8.24c32.46,16.82 147.84,-29.62 158.07,64.82l-91.05 40.44 5.92 21.19 112.17 -29.18 0.36 -14.36 71.09 99.34c-43.51,18.67 -90.84,31.02 -135.72,46.12l3.31 13.39 170.14 -7.25 42.3 77.76c-15.98,9.22 -35.97,13.78 -53.33,20.02l-1.11 15.09 94.22 28.22 -2.04 14.46 -104.6 40.3 2.25 11.29 132.82 -4.13 12.29 36.97 -119.98 14.7 1.71 11.81 160.61 42.45 -3.13 24.41 -99.06 36.83c13.95,37.52 77.59,1.14 105.6,11.33 22.86,8.32 41.84,66.43 32.03,88.05l-64.17 27.97 2.97 12.05c23.1,2.31 57.63,10.62 79.76,6.16l17.49 65.98c-14.82,13.4 -133.1,36.4 -160.69,43.2l2.98 12.08c23.32,28.13 95.72,-6.39 131.29,-7.83 50.66,-2.05 71.7,55.28 57.42,91.07l-106.34 33.96 4.07 21.93c345.89,-26.37 -148.55,122.04 -149.01,125.67l1.35 11.92c209.47,-22.95 530.64,14.01 164.62,71.87l-1.19 11.23c329.92,101.99 56.53,145.14 177.08,151.46zm-2690.46 -837.24c-25.22,78.45 -65.35,261.94 -86.14,346.36 -41.96,170.38 -31.66,356.95 -43.77,530.73 -18.39,264.01 126.6,680.16 204.19,942.87 172.73,584.85 349.43,1154.36 577.44,1720.07 55.84,138.52 92.02,286.81 148.97,429.54 88.37,221.5 290.21,599.17 344.71,803.97 30.29,113.82 6.98,108.68 122.94,164.54 87,41.9 234.51,-44.3 311.2,-94.56 50.2,-32.9 82.1,-11.55 111.21,-30.18 23.06,-14.75 74.96,-165.64 87.83,-200 48.93,-130.67 104.9,-286.5 163.2,-411.24 479.51,-1025.98 1489.34,-3356.13 841.12,-4448.23 -38.12,-64.22 -53.61,-123.9 -98.84,-188.39 -95.19,-135.73 -276.08,-367.12 -403.21,-458.93 -199.84,-144.33 -665.88,-252.13 -904.45,-215.78 -326.19,49.68 -572.17,136.01 -815.82,333.41 -112.98,91.53 -199.96,177.08 -282.54,291.74 -0.22,0.3 -274.09,471.77 -278.04,484.08z"/>
   <path class="fil0" d="M1024.62 1633.99c37.43,-11.53 180.77,-14.02 206.16,6.83 -5.77,25.3 -80.47,42.12 -105.38,42.77 -51.17,1.34 -102.7,12.03 -100.78,-49.6zm199.33 -90.39c1.64,36.05 -3.79,31.66 -37.17,32.58 -32.43,0.89 -192.77,12.07 -193.08,-13.61 -0.13,-10.57 30.18,-26.51 40.54,-28.29 14.95,-2.57 47.91,-3.59 64.1,-3.98 24.37,-0.58 48.64,-0.27 73.01,-0.45 33.43,-0.24 27.47,-3.33 52.6,13.75zm112.54 47.87c-1.45,0.71 -29.82,94.73 -34.62,21.78 -2.72,-41.41 24.87,-32.88 26.66,-71.35 7.79,-166.96 -48.17,-257.47 150.12,-433.94 66.62,-59.29 196.65,38.47 262.44,76.21 92.34,52.98 131.2,132.22 166.89,227.87 38.64,103.59 23.35,243.76 -0.97,349.46 -14.3,62.16 -122.67,211.27 -179.96,215.01 -111.77,7.29 -203.18,-41.58 -278.64,-116.18 -30.39,-30.04 -63.11,-85.79 -72.25,-126.6 -12.55,-56.1 -28.79,-27.94 -24.78,-66.46 2.07,-19.85 -3.64,-56.19 -14.89,-75.8zm-335.56 -109.12c-2.17,-42.18 52.96,-36.36 89.77,-38.25 23.28,-1.19 110.4,-12.37 117.58,13.05 11.85,42 -68.68,33.82 -90.64,34.15 -36.33,0.53 -86.45,11.16 -116.71,-8.95zm140.66 -255.15c-3.49,-18.44 17.19,-42.64 32.41,-47.98 15.35,-5.39 60.5,-1.23 78.76,-0.15 4.67,21.23 -8.94,40.5 -30.33,46.99 -17.31,5.25 -61.17,2.56 -80.84,1.14zm345.02 -277.99c-200.91,36.89 -294.54,33.86 -441.54,169.54 -444.12,409.91 -81.32,1017.88 358.02,1085.95 327.64,50.77 620.53,-274.43 641.56,-584.74 20.33,-299.87 -219.56,-732.89 -558.04,-670.75z"/>
   <path class="fil0" d="M1223.4 4611.89c17.82,27.86 58.81,15.09 84.35,7.38 26.76,-8.08 61.96,-10.4 89.93,-15.06 44.74,-7.45 176.95,18.39 179.97,-30.45 -33.61,-18.69 -151.42,-15.95 -195.11,-10.2 -57.37,7.54 -74.6,12.55 -126.01,29.36 -29.45,9.62 -26.64,7.11 -33.13,18.97z"/>
   <path class="fil0" d="M1698.85 444.22c44.92,27.68 73.68,-6.35 72.16,-22.83 -6.15,-14.22 -22.48,-51.4 -36.36,-56.49 -6.03,8.41 -33.19,65.85 -35.8,79.32z"/>
   <path class="fil0" d="M1440.59 5668.82c35.52,23.47 80.41,14.51 82.72,-34.22 -16.91,-6.25 -40.63,-13.88 -57.61,-4.21 -12.13,6.91 -25.07,24.57 -25.11,38.43z"/>
   <path class="fil0" d="M703.51 532.37c2.73,24.57 10,6.33 10.43,26.84 0.28,13.66 -6.13,10.2 -10.78,27.39 29.17,-3.44 34.54,-21.36 61.39,-29.07 41.14,-11.82 107.33,-23.17 150.04,-27.06 27.38,-2.5 44.25,-11.66 45.42,-39.81 -28.28,-2.6 -242.79,29.91 -256.5,41.71z"/>
   <path class="fil0" d="M1335.3 5068.12c45.6,2.51 112.36,-9.94 134.34,-38.7 -31.43,-24.27 -37.91,-29.62 -81.97,-16.66 -26.99,7.95 -50.36,27.38 -52.37,55.36z"/>
  </g>
 </g>
</svg>
